<svg xmlns="http://www.w3.org/2000/svg" width="438" height="152" viewBox="0 0 276 96" role="img" aria-label="CAFE NODE &amp; BYTE logo">
  <rect width="276" height="96" fill="#ffffff"/>

  <g transform="translate(10,14)">
    <rect x="0" y="24" width="50" height="30" rx="7" fill="none" stroke="#111111" stroke-width="3.5"/>
    <path d="M50 30h10c7 0 10 4 10 8s-3 8-10 8h-10" fill="none" stroke="#111111" stroke-width="3.5" stroke-linecap="round"/>
    <path d="M3 24c4-9 10-13 22-13s18 4 22 13" fill="none" stroke="#0f6a57" stroke-width="3.5" stroke-linecap="round"/>
    <circle cx="13" cy="39" r="2.8" fill="#0f6a57"/>
    <circle cx="25" cy="39" r="2.8" fill="#0f6a57"/>
    <circle cx="37" cy="39" r="2.8" fill="#0f6a57"/>
    <line x1="13" y1="36.2" x2="13" y2="28.2" stroke="#0f6a57" stroke-width="2.2"/>
    <line x1="25" y1="36.2" x2="25" y2="24.2" stroke="#0f6a57" stroke-width="2.2"/>
    <line x1="37" y1="36.2" x2="37" y2="28.2" stroke="#0f6a57" stroke-width="2.2"/>
  </g>

  <g transform="translate(78,18)">
    <text x="0" y="30" font-family="Arial, Helvetica, sans-serif" font-size="18" font-weight="700" letter-spacing="0.8" fill="#111111">
      CAFE NODE &amp; BYTE
    </text>
    <text x="1" y="54" font-family="Arial, Helvetica, sans-serif" font-size="9.2" font-weight="700" letter-spacing="0.55" fill="#0f6a57">
      SPECIALTY COFFEE - CODE FRIENDLY
    </text>
  </g>
</svg>
